<svg id="Layer_1" data-name="Layer 1" xmlns="http://www.w3.org/2000/svg" viewBox="0 0 262.49 72.65"><defs><style>.cls-1{fill:#28231c;}</style></defs><path class="cls-1" d="M22.93,30.22H24.7V42.45h5.86v1.49H22.93Z"/><path class="cls-1" d="M35.61,30.22v8.12c0,3.07,1.36,4.38,3.2,4.38,2,0,3.33-1.35,3.33-4.38V30.22h1.79v8c0,4.21-2.21,5.94-5.19,5.94-2.8,0-4.92-1.61-4.92-5.86V30.22Z"/><path class="cls-1" d="M49,43.94V30.22H51l4.39,6.94a38,38,0,0,1,2.46,4.46l.05,0c-.17-1.83-.21-3.5-.21-5.64V30.22h1.67V43.94H57.55l-4.36-7a45.32,45.32,0,0,1-2.56-4.58l-.06,0c.1,1.73.14,3.38.14,5.66v5.86Z"/><path class="cls-1" d="M71.57,37.51H66.24v4.94h5.94v1.49H64.47V30.22h7.41v1.49H66.24V36h5.33Z"/><path class="cls-1" d="M76.52,30.22H83.9v1.49H78.29v4.56h5.19v1.46H78.29v6.21H76.52Z"/><path class="cls-1" d="M90.23,30.22v8.12c0,3.07,1.37,4.38,3.2,4.38,2,0,3.34-1.35,3.34-4.38V30.22h1.79v8c0,4.21-2.22,5.94-5.19,5.94-2.81,0-4.93-1.61-4.93-5.86V30.22Z"/><path class="cls-1" d="M103.66,30.22h1.78V42.45h5.86v1.49h-7.64Z"/><path class="cls-1" d="M115.31,30.4a25.68,25.68,0,0,1,3.76-.28c2.54,0,4.36.59,5.56,1.71a6.32,6.32,0,0,1,1.93,4.92,7.28,7.28,0,0,1-2,5.34c-1.29,1.28-3.4,2-6.07,2a28.92,28.92,0,0,1-3.21-.16Zm1.77,12.14a11.32,11.32,0,0,0,1.79.1c3.78,0,5.84-2.12,5.84-5.83,0-3.23-1.81-5.29-5.56-5.29a9.35,9.35,0,0,0-2.07.19Z"/><path class="cls-1" d="M137.24,30.22H139V42.45h5.86v1.49h-7.64Z"/><path class="cls-1" d="M150.23,43.94V38.12l-4.34-7.9h2L149.84,34c.53,1,.94,1.87,1.36,2.82h.05c.38-.89.85-1.79,1.38-2.82l2-3.79h2L152,38.1v5.84Z"/><path class="cls-1" d="M160.08,30.22h1.77v6.61h.06c.37-.52.73-1,1.08-1.46l4.19-5.15h2.2l-5,5.82,5.36,7.9h-2.1l-4.52-6.74-1.3,1.51v5.23h-1.77Z"/><path class="cls-1" d="M173.14,30.22h1.77v6.61H175c.36-.52.73-1,1.07-1.46l4.2-5.15h2.2l-5,5.82,5.35,7.9h-2.09l-4.52-6.74-1.31,1.51v5.23h-1.77Z"/><path class="cls-1" d="M193.31,37.51H188v4.94h5.94v1.49h-7.71V30.22h7.41v1.49H188V36h5.33Z"/><path class="cls-1" d="M238,61.45h2v1.39h-5.79V60.53a2.8,2.8,0,0,1,.24-1.18,1.92,1.92,0,0,1,.7-.79,2,2,0,0,1,1-.28,1.67,1.67,0,0,1,1.36.61,2.5,2.5,0,0,1,.51,1.66Zm-1.08,0v-.92a.85.85,0,0,0-.21-.62.74.74,0,0,0-.57-.21.92.92,0,0,0-.65.22.75.75,0,0,0-.24.6v.93Z"/><path class="cls-1" d="M238.89,54.51V52.08H240v3.83h-5.79v-1.4Z"/><path class="cls-1" d="M238.88,46.49v1.92l1.08.33v1.49l-5.79-2.12V46.79L240,44.65v1.5Zm-1.08,1.58V46.83l-2,.62Z"/><path class="cls-1" d="M237.81,40.63l.62.57H240v1.4h-5.79V41.2h2.55l-.73-.48-1.82-1.25V37.74l2.56,2,3.23-2V39.4Z"/><path class="cls-1" d="M238.88,32.46v1.92l1.08.33v1.5l-5.79-2.13V32.77L240,30.62v1.51ZM237.8,34V32.8l-2,.62Z"/><path class="cls-1" d="M235.25,24.5v1.74H240v1.4h-4.71v1.71h-1.08V24.5Z"/><path class="cls-1" d="M237.5,18.69v2.19h1.39V18.29H240v4h-5.79v-4h1.08v2.6h1.22V18.69Z"/><path class="cls-1" d="M237.91,13.94v.75H240v1.4h-5.79V13.81a2.55,2.55,0,0,1,.45-1.61,1.56,1.56,0,0,1,1.3-.58,1.92,1.92,0,0,1,1,.24,1.72,1.72,0,0,1,.64.77l2.34-1.21H240v1.49Zm-1.07.75v-.88a.78.78,0,0,0-.21-.6A.84.84,0,0,0,236,13a.82.82,0,0,0-.58.2.78.78,0,0,0-.22.6v.88Z"/><path class="cls-1" d="M249.24,49.33v1.34h.85V49.09h.65v2.43h-3.53V49.08h.66v1.59h.74V49.33Z"/><path class="cls-1" d="M249.8,45.93a.35.35,0,0,0-.29.13,1.54,1.54,0,0,0-.21.46,4.79,4.79,0,0,1-.22.55,1,1,0,0,1-.93.68.77.77,0,0,1-.51-.17,1,1,0,0,1-.35-.48,1.76,1.76,0,0,1-.13-.71,1.65,1.65,0,0,1,.14-.68,1.12,1.12,0,0,1,.38-.47,1,1,0,0,1,.58-.16v.84a.43.43,0,0,0-.34.14.48.48,0,0,0-.12.35.59.59,0,0,0,.1.36.3.3,0,0,0,.51,0,1.81,1.81,0,0,0,.22-.51,2.89,2.89,0,0,1,.26-.6,1,1,0,0,1,.91-.57.84.84,0,0,1,.72.34,1.56,1.56,0,0,1,.27,1,1.78,1.78,0,0,1-.16.78,1.11,1.11,0,0,1-.42.52,1.07,1.07,0,0,1-.61.18V47a.53.53,0,0,0,.41-.15.71.71,0,0,0,.14-.48.54.54,0,0,0-.09-.33A.31.31,0,0,0,249.8,45.93Z"/><path class="cls-1" d="M247.87,40.87v1.06h2.87v.86h-2.87v1h-.66v-3Z"/><path class="cls-1" d="M250.74,35v2.46h-.53L249,36.36a1.33,1.33,0,0,0-.75-.42.5.5,0,0,0-.35.1.34.34,0,0,0-.12.28.36.36,0,0,0,.16.31.7.7,0,0,0,.4.11v.82a1.18,1.18,0,0,1-.61-.16,1.24,1.24,0,0,1-.43-.45,1.38,1.38,0,0,1-.15-.65,1.36,1.36,0,0,1,.26-.88,1,1,0,0,1,.76-.31,1.15,1.15,0,0,1,.41.08,1.61,1.61,0,0,1,.41.24,5.72,5.72,0,0,1,.58.53l.53.46V35Z"/><path class="cls-1" d="M249.3,31.17a1.72,1.72,0,0,1,1.1.32,1.26,1.26,0,0,1,0,1.82,1.72,1.72,0,0,1-1.1.32h-.65a1.72,1.72,0,0,1-1.1-.32,1.11,1.11,0,0,1-.39-.91,1.12,1.12,0,0,1,.39-.91,1.73,1.73,0,0,1,1.11-.32Zm-.75.82a1.21,1.21,0,0,0-.57.1.35.35,0,0,0,0,.62,1.15,1.15,0,0,0,.53.1h.9a1.26,1.26,0,0,0,.58-.1.32.32,0,0,0,.18-.31.33.33,0,0,0-.18-.31,1.14,1.14,0,0,0-.56-.1Z"/><path class="cls-1" d="M250.74,27.29v2.46h-.53L249,28.62a1.33,1.33,0,0,0-.75-.42.5.5,0,0,0-.35.1.38.38,0,0,0,0,.59.63.63,0,0,0,.4.12v.82a1.19,1.19,0,0,1-.61-.17,1.1,1.1,0,0,1-.43-.45,1.54,1.54,0,0,1,.11-1.52.94.94,0,0,1,.76-.31,1,1,0,0,1,.41.08,1.61,1.61,0,0,1,.41.24,4.48,4.48,0,0,1,.58.52l.53.46V27.29Z"/><path class="cls-1" d="M249.3,23.43a1.72,1.72,0,0,1,1.1.32,1.12,1.12,0,0,1,.39.91,1.11,1.11,0,0,1-.39.91,1.66,1.66,0,0,1-1.1.32h-.65a1.66,1.66,0,0,1-1.1-.32,1.25,1.25,0,0,1,0-1.81,1.67,1.67,0,0,1,1.11-.33Zm-.75.82a1.21,1.21,0,0,0-.57.1.34.34,0,0,0-.19.31A.32.32,0,0,0,248,25a1.13,1.13,0,0,0,.53.11h.9A1.41,1.41,0,0,0,250,25a.35.35,0,0,0,.18-.32.33.33,0,0,0-.18-.31,1.27,1.27,0,0,0-.56-.1Z"/><path class="cls-1" d="M222.74,72.65H0V0H222.74ZM3.43,69.22H219.31V3.43H3.43Z"/><polygon class="cls-1" points="210.74 0 210.74 3.43 259.06 3.43 259.06 69.22 210.74 69.22 210.74 72.65 262.49 72.65 262.49 0 210.74 0"/></svg>